<mxfile host="app.diagrams.net" agent="Mozilla/5.0 (Macintosh; Intel Mac OS X 10_15_7) AppleWebKit/537.36 (KHTML, like Gecko) Chrome/129.0.0.0 Safari/537.36" version="24.8.1">
  <diagram name="第 1 页" id="yJgmaSH1xIqjs13In67w">
    <mxGraphModel dx="1853" dy="650" grid="1" gridSize="10" guides="1" tooltips="1" connect="1" arrows="1" fold="1" page="1" pageScale="1" pageWidth="827" pageHeight="1169" math="0" shadow="0">
      <root>
        <mxCell id="0" />
        <mxCell id="1" parent="0" />
        <mxCell id="RrWnE-KfelOkr5U7LzMw-3" value="" style="edgeStyle=orthogonalEdgeStyle;rounded=0;orthogonalLoop=1;jettySize=auto;html=1;" parent="1" source="RrWnE-KfelOkr5U7LzMw-1" target="RrWnE-KfelOkr5U7LzMw-2" edge="1">
          <mxGeometry relative="1" as="geometry" />
        </mxCell>
        <mxCell id="RrWnE-KfelOkr5U7LzMw-1" value="标签分类新增" style="ellipse;whiteSpace=wrap;html=1;" parent="1" vertex="1">
          <mxGeometry x="280" y="140" width="110" height="50" as="geometry" />
        </mxCell>
        <mxCell id="RrWnE-KfelOkr5U7LzMw-7" value="" style="edgeStyle=orthogonalEdgeStyle;rounded=0;orthogonalLoop=1;jettySize=auto;html=1;" parent="1" source="RrWnE-KfelOkr5U7LzMw-2" target="RrWnE-KfelOkr5U7LzMw-6" edge="1">
          <mxGeometry relative="1" as="geometry" />
        </mxCell>
        <mxCell id="RrWnE-KfelOkr5U7LzMw-20" value="" style="edgeStyle=orthogonalEdgeStyle;rounded=0;orthogonalLoop=1;jettySize=auto;html=1;" parent="1" source="RrWnE-KfelOkr5U7LzMw-2" target="RrWnE-KfelOkr5U7LzMw-19" edge="1">
          <mxGeometry relative="1" as="geometry" />
        </mxCell>
        <mxCell id="RrWnE-KfelOkr5U7LzMw-2" value="校验标签&lt;div&gt;信息完整&lt;/div&gt;" style="rhombus;whiteSpace=wrap;html=1;" parent="1" vertex="1">
          <mxGeometry x="282.5" y="250" width="105" height="70" as="geometry" />
        </mxCell>
        <mxCell id="RrWnE-KfelOkr5U7LzMw-9" value="" style="edgeStyle=orthogonalEdgeStyle;rounded=0;orthogonalLoop=1;jettySize=auto;html=1;" parent="1" source="RrWnE-KfelOkr5U7LzMw-4" target="RrWnE-KfelOkr5U7LzMw-8" edge="1">
          <mxGeometry relative="1" as="geometry" />
        </mxCell>
        <mxCell id="RrWnE-KfelOkr5U7LzMw-12" value="非一级" style="edgeLabel;html=1;align=center;verticalAlign=middle;resizable=0;points=[];" parent="RrWnE-KfelOkr5U7LzMw-9" vertex="1" connectable="0">
          <mxGeometry x="-0.3824" y="-3" relative="1" as="geometry">
            <mxPoint as="offset" />
          </mxGeometry>
        </mxCell>
        <mxCell id="RrWnE-KfelOkr5U7LzMw-18" value="" style="edgeStyle=orthogonalEdgeStyle;rounded=0;orthogonalLoop=1;jettySize=auto;html=1;entryX=0.5;entryY=0;entryDx=0;entryDy=0;" parent="1" source="RrWnE-KfelOkr5U7LzMw-4" target="RrWnE-KfelOkr5U7LzMw-25" edge="1">
          <mxGeometry relative="1" as="geometry">
            <mxPoint x="430" y="605" as="targetPoint" />
          </mxGeometry>
        </mxCell>
        <mxCell id="RrWnE-KfelOkr5U7LzMw-24" value="一级" style="edgeLabel;html=1;align=center;verticalAlign=middle;resizable=0;points=[];" parent="RrWnE-KfelOkr5U7LzMw-18" vertex="1" connectable="0">
          <mxGeometry x="-0.6261" y="1" relative="1" as="geometry">
            <mxPoint x="1" y="1" as="offset" />
          </mxGeometry>
        </mxCell>
        <mxCell id="RrWnE-KfelOkr5U7LzMw-4" value="判断是否&lt;div&gt;为一级标签&lt;/div&gt;" style="rhombus;whiteSpace=wrap;html=1;" parent="1" vertex="1">
          <mxGeometry x="282.5" y="500" width="105" height="65" as="geometry" />
        </mxCell>
        <mxCell id="RrWnE-KfelOkr5U7LzMw-6" value="返回信息缺失" style="whiteSpace=wrap;html=1;" parent="1" vertex="1">
          <mxGeometry x="110" y="267.5" width="100" height="35" as="geometry" />
        </mxCell>
        <mxCell id="RrWnE-KfelOkr5U7LzMw-11" value="" style="edgeStyle=orthogonalEdgeStyle;rounded=0;orthogonalLoop=1;jettySize=auto;html=1;" parent="1" source="RrWnE-KfelOkr5U7LzMw-8" target="RrWnE-KfelOkr5U7LzMw-10" edge="1">
          <mxGeometry relative="1" as="geometry" />
        </mxCell>
        <mxCell id="RrWnE-KfelOkr5U7LzMw-14" value="" style="edgeStyle=orthogonalEdgeStyle;rounded=0;orthogonalLoop=1;jettySize=auto;html=1;" parent="1" source="RrWnE-KfelOkr5U7LzMw-8" target="RrWnE-KfelOkr5U7LzMw-13" edge="1">
          <mxGeometry relative="1" as="geometry" />
        </mxCell>
        <mxCell id="RrWnE-KfelOkr5U7LzMw-8" value="校验父标签&lt;div&gt;是否存在&lt;/div&gt;" style="rhombus;whiteSpace=wrap;html=1;" parent="1" vertex="1">
          <mxGeometry x="140" y="610" width="100" height="70" as="geometry" />
        </mxCell>
        <mxCell id="RrWnE-KfelOkr5U7LzMw-10" value="返回父标签不存在" style="whiteSpace=wrap;html=1;" parent="1" vertex="1">
          <mxGeometry x="-30" y="627.5" width="120" height="35" as="geometry" />
        </mxCell>
        <mxCell id="RrWnE-KfelOkr5U7LzMw-16" value="" style="edgeStyle=orthogonalEdgeStyle;rounded=0;orthogonalLoop=1;jettySize=auto;html=1;" parent="1" source="RrWnE-KfelOkr5U7LzMw-13" target="RrWnE-KfelOkr5U7LzMw-15" edge="1">
          <mxGeometry relative="1" as="geometry" />
        </mxCell>
        <mxCell id="RrWnE-KfelOkr5U7LzMw-26" value="" style="edgeStyle=orthogonalEdgeStyle;rounded=0;orthogonalLoop=1;jettySize=auto;html=1;" parent="1" source="RrWnE-KfelOkr5U7LzMw-13" target="RrWnE-KfelOkr5U7LzMw-25" edge="1">
          <mxGeometry relative="1" as="geometry" />
        </mxCell>
        <mxCell id="RrWnE-KfelOkr5U7LzMw-13" value="校验是否大于&lt;div&gt;五级&lt;/div&gt;" style="rhombus;whiteSpace=wrap;html=1;" parent="1" vertex="1">
          <mxGeometry x="125" y="730" width="130" height="65" as="geometry" />
        </mxCell>
        <mxCell id="RrWnE-KfelOkr5U7LzMw-15" value="返回级数过高" style="whiteSpace=wrap;html=1;" parent="1" vertex="1">
          <mxGeometry x="-25" y="741.25" width="110" height="42.5" as="geometry" />
        </mxCell>
        <mxCell id="RrWnE-KfelOkr5U7LzMw-22" value="" style="edgeStyle=orthogonalEdgeStyle;rounded=0;orthogonalLoop=1;jettySize=auto;html=1;" parent="1" source="RrWnE-KfelOkr5U7LzMw-19" target="RrWnE-KfelOkr5U7LzMw-21" edge="1">
          <mxGeometry relative="1" as="geometry" />
        </mxCell>
        <mxCell id="RrWnE-KfelOkr5U7LzMw-23" style="edgeStyle=orthogonalEdgeStyle;rounded=0;orthogonalLoop=1;jettySize=auto;html=1;" parent="1" source="RrWnE-KfelOkr5U7LzMw-19" target="RrWnE-KfelOkr5U7LzMw-4" edge="1">
          <mxGeometry relative="1" as="geometry" />
        </mxCell>
        <mxCell id="RrWnE-KfelOkr5U7LzMw-19" value="校验标签名&lt;div&gt;是否存在&lt;/div&gt;" style="rhombus;whiteSpace=wrap;html=1;" parent="1" vertex="1">
          <mxGeometry x="282.5" y="380" width="105" height="65" as="geometry" />
        </mxCell>
        <mxCell id="RrWnE-KfelOkr5U7LzMw-21" value="标签已存在" style="whiteSpace=wrap;html=1;" parent="1" vertex="1">
          <mxGeometry x="105" y="392.5" width="110" height="40" as="geometry" />
        </mxCell>
        <mxCell id="RrWnE-KfelOkr5U7LzMw-25" value="数据封装保存&lt;div&gt;mysql表&lt;/div&gt;" style="shape=process;whiteSpace=wrap;html=1;backgroundOutline=1;" parent="1" vertex="1">
          <mxGeometry x="275" y="850" width="120" height="60" as="geometry" />
        </mxCell>
        <mxCell id="Es2-0_8MvUT35m9bvLvU-3" value="校验不存在父id" style="rhombus;whiteSpace=wrap;html=1;" vertex="1" parent="1">
          <mxGeometry x="282.5" y="662.5" width="105" height="80" as="geometry" />
        </mxCell>
      </root>
    </mxGraphModel>
  </diagram>
</mxfile>
